<?xml version="1.0" encoding="UTF-8"?>
<svg xmlns="http://www.w3.org/2000/svg"   width="600.000" height="600.000" viewBox="0.0 0.0 800.000 600.000" version="1.1">
  <title>Codes</title>
  <desc>Codes - Code Notes</desc>
<path d="M140.6 66.55 140.8 69.08 140.8 69.08 141.39 71.6 141.39 71.6 142.38 74.12 142.38 74.12 143.76 76.63 143.76 76.63 145.53 79.12 145.53 79.12 147.68 81.59 147.68 81.59 150.22 84.04 150.22 84.04 153.14 86.47 153.14 86.47 156.44 88.86 156.44 88.86 160.11 91.22 160.11 91.22 164.14 93.54 164.14 93.54 168.53 95.82 168.53 95.82 173.28 98.05 173.28 98.05 178.37 100.24 178.37 100.24 183.79 102.38 183.79 102.38 189.55 104.46 189.55 104.46 195.63 106.48 195.63 106.48 202.02 108.45 202.02 108.45 208.71 110.35 208.71 110.35 215.69 112.18 215.69 112.18 222.95 113.94 222.95 113.94 230.48 115.63 230.48 115.63 238.27 117.25 238.27 117.25 246.3 118.79 246.3 118.79 254.57 120.25 254.57 120.25 263.07 121.62 263.07 121.62 271.77 122.92 271.77 122.92 280.66 124.13 280.66 124.13 289.74 125.25 289.74 125.25 298.98 126.28 298.98 126.28 308.38 127.22 308.38 127.22 317.92 128.06 317.92 128.06 327.58 128.82 327.58 128.82 337.36 129.48 337.36 129.48 347.22 130.04 347.22 130.04 357.17 130.51 357.17 130.51 367.19 130.88 367.19 130.88 377.25 131.15 377.25 131.15 387.35 131.32 387.35 131.32 397.47 131.39 397.47 131.39 407.59 131.37 407.59 131.37 417.7 131.25 417.7 131.25 427.79 131.02 427.79 131.02 437.83 130.7 437.83 130.7 447.81 130.29 447.81 130.29 457.72 129.77 457.72 129.77 467.54 129.16 467.54 129.16 477.26 128.45 477.26 128.45 486.87 127.65 486.87 127.65 496.34 126.76 496.34 126.76 505.66 125.77 505.66 125.77 514.82 124.7 514.82 124.7 523.81 123.53 523.81 123.53 532.61 122.28 532.61 122.28 541.21 120.95 541.21 120.95 549.59 119.53 549.59 119.53 557.74 118.03 557.74 118.03 565.66 116.45 565.66 116.45 573.32 114.8 573.32 114.8 580.72 113.07 580.72 113.07 587.84 111.27 587.84 111.27 594.68 109.4 594.68 109.4 601.22 107.47 601.22 107.47 607.45 105.48 607.45 105.48 613.37 103.43 613.37 103.43 618.96 101.32 618.96 101.32 624.22 99.15 624.22 99.15 629.14 96.94 629.14 96.94 633.71 94.68 633.71 94.68 637.92 92.38 637.92 92.38 641.77 90.04 641.77 90.04 645.26 87.67 645.26 87.67 648.36 85.26 648.36 85.26 651.1 82.82 651.1 82.82 653.44 80.36 653.44 80.36 655.41 77.88 655.41 77.88 656.98 75.38 656.98 75.38 658.16 72.86 658.16 72.86 658.95 70.34 658.95 70.34 659.35 67.81 659.35 67.81 659.35 65.28 659.35 65.28 658.95 62.75 658.95 62.75 658.16 60.23 658.16 60.23 656.98 57.72 656.98 57.72 655.41 55.22 655.41 55.22 653.44 52.73 653.44 52.73 651.1 50.27 651.1 50.27 648.36 47.84 648.36 47.84 645.26 45.43 645.26 45.43 641.77 43.05 641.77 43.05 637.92 40.71 637.92 40.71 633.71 38.41 633.71 38.41 629.14 36.15 629.14 36.15 624.22 33.94 624.22 33.94 618.96 31.78 618.96 31.78 613.37 29.67 613.37 29.67 607.45 27.62 607.45 27.62 601.22 25.62 601.22 25.62 594.68 23.69 594.68 23.69 587.84 21.82 587.84 21.82 580.72 20.03 580.72 20.03 573.32 18.3 573.32 18.3 565.66 16.64 565.66 16.64 557.74 15.07 557.74 15.07 549.59 13.57 549.59 13.57 541.21 12.15 541.21 12.15 532.61 10.81 532.61 10.81 523.81 9.56 523.81 9.56 514.82 8.4 514.82 8.4 505.66 7.32 505.66 7.32 496.34 6.34 496.34 6.34 486.87 5.44 486.87 5.44 477.26 4.64 477.26 4.64 467.54 3.93 467.54 3.93 457.72 3.32 457.72 3.32 447.81 2.81 447.81 2.81 437.83 2.39 437.83 2.39 427.79 2.07 427.79 2.07 417.7 1.85 417.7 1.85 407.59 1.73 407.59 1.73 397.47 1.7 397.47 1.7 387.35 1.77 387.35 1.77 377.25 1.95 377.25 1.95 367.19 2.22 367.19 2.22 357.17 2.59 357.17 2.59 347.22 3.05 347.22 3.05 337.36 3.62 337.36 3.62 327.58 4.28 327.58 4.28 317.92 5.03 317.92 5.03 308.38 5.88 308.38 5.88 298.98 6.82 298.98 6.82 289.74 7.85 289.74 7.85 280.66 8.97 280.66 8.97 271.77 10.18 271.77 10.18 263.07 11.47 263.07 11.47 254.57 12.85 254.57 12.85 246.3 14.31 246.3 14.31 238.27 15.85 238.27 15.85 230.48 17.46 230.48 17.46 222.95 19.15 222.95 19.15 215.69 20.92 215.69 20.92 208.71 22.75 208.71 22.75 202.02 24.65 202.02 24.65 195.63 26.61 195.63 26.61 189.55 28.63 189.55 28.63 183.79 30.72 183.79 30.72 178.37 32.85 178.37 32.85 173.28 35.04 173.28 35.04 168.53 37.28 168.53 37.28 164.14 39.56 164.14 39.56 160.11 41.88 160.11 41.88 156.44 44.24 156.44 44.24 153.14 46.63 153.14 46.63 150.22 49.05 150.22 49.05 147.68 51.5 147.68 51.5 145.53 53.97 145.53 53.97 143.76 56.46 143.76 56.46 142.38 58.97 142.38 58.97 141.39 61.49 141.39 61.49 140.8 64.02 140.8 64.02 140.6 66.55"
fill="#be5046" stroke="black" stroke-width="9.5"/>
<path d="M140.6 222.19 140.61 222.66 140.61 222.66 140.63 223.13 140.63 223.13 140.67 223.61 140.67 223.61 140.71 224.09 140.71 224.09 140.78 224.56 140.78 224.56 140.86 225.04 140.86 225.04 140.95 225.52 140.95 225.52 141.05 226.01 141.05 226.01 141.18 226.49 141.18 226.49 141.31 226.97 141.31 226.97 141.46 227.46 141.46 227.46 141.63 227.95 141.63 227.95 141.81 228.43 141.81 228.43 142.01 228.92 142.01 228.92 142.22 229.41 142.22 229.41 142.45 229.9 142.45 229.9 142.69 230.39 142.69 230.39 142.95 230.88 142.95 230.88 143.22 231.38 143.22 231.38 143.51 231.87 143.51 231.87 143.82 232.36 143.82 232.36 144.14 232.86 144.14 232.86 144.48 233.35 144.48 233.35 144.83 233.85 144.83 233.85 145.2 234.35 145.2 234.35 145.59 234.84 145.59 234.84 146 235.34 146 235.34 146.42 235.84 146.42 235.84 146.85 236.34 146.85 236.34 147.31 236.83 147.31 236.83 147.78 237.33 147.78 237.33 148.26 237.83 148.26 237.83 148.77 238.33 148.77 238.33 149.29 238.83 149.29 238.83 149.83 239.33 149.83 239.33 150.38 239.82 150.38 239.82 150.96 240.32 150.96 240.32 151.55 240.82 151.55 240.82 152.15 241.32 152.15 241.32 152.78 241.82 152.78 241.82 153.42 242.32 153.42 242.32 154.08 242.81 154.08 242.81 154.75 243.31 154.75 243.31 155.44 243.81 155.44 243.81 156.15 244.3 156.15 244.3 156.88 244.8 156.88 244.8 157.63 245.29 157.63 245.29 158.39 245.79 158.39 245.79 159.17 246.28 159.17 246.28 159.97 246.77 159.97 246.77 160.78 247.26 160.78 247.26 161.62 247.75 161.62 247.75 162.47 248.24 162.47 248.24 163.34 248.73 163.34 248.73 164.22 249.22 164.22 249.22 165.12 249.71 165.12 249.71 166.04 250.19 166.04 250.19 166.98 250.68 166.98 250.68 167.94 251.16 167.94 251.16 168.91 251.64 168.91 251.64 169.9 252.12 169.9 252.12 170.9 252.6 170.9 252.6 171.93 253.08 171.93 253.08 172.97 253.55 172.97 253.55 174.03 254.03 174.03 254.03 175.1 254.5 175.1 254.5 176.19 254.97 176.19 254.97 177.3 255.44 177.3 255.44 178.43 255.91 178.43 255.91 179.57 256.37 179.57 256.37 180.73 256.83 180.73 256.83 181.91 257.29 181.91 257.29 183.1 257.75 183.1 257.75 184.31 258.21 184.31 258.21 185.54 258.66 185.54 258.66 186.78 259.12 186.78 259.12 188.04 259.57 188.04 259.57 189.31 260.01 189.31 260.01 190.6 260.46 190.6 260.46 191.91 260.9 191.91 260.9 193.23 261.34 193.23 261.34 194.57 261.78 194.57 261.78 195.92 262.22 195.92 262.22 197.29 262.65 197.29 262.65 198.68 263.08 198.68 263.08 200.08 263.5 200.08 263.5 201.49 263.93 201.49 263.93 202.92 264.35 202.92 264.35 204.36 264.77 204.36 264.77 205.82 265.18 205.82 265.18 207.3 265.6 207.3 265.6 208.78 266.01 208.78 266.01 210.29 266.41 210.29 266.41 211.8 266.81 211.8 266.81 213.33 267.21 213.33 267.21 214.87 267.61 214.87 267.61 216.43 268 216.43 268 218 268.39 218 268.39 219.59 268.78 219.59 268.78 221.18 269.16 221.18 269.16 222.79 269.54 222.79 269.54 224.41 269.92 224.41 269.92 226.05 270.29 226.05 270.29 227.7 270.66 227.7 270.66 229.35 271.03 229.35 271.03 231.03 271.39 231.03 271.39 232.71 271.75 232.71 271.75 234.4 272.1 234.4 272.1 236.11 272.45 236.11 272.45 237.82 272.8 237.82 272.8 239.55 273.14 239.55 273.14 241.29 273.48 241.29 273.48 243.04 273.81 243.04 273.81 244.8 274.15 244.8 274.15 246.57 274.47 246.57 274.47 248.35 274.8 248.35 274.8 251.93 275.43 251.93 275.43 255.56 276.05 255.56 276.05 259.22 276.65 259.22 276.65 262.91 277.24 262.91 277.24 266.63 277.81 266.63 277.81 270.39 278.36 270.39 278.36 274.17 278.89 274.17 278.89 277.98 279.41 277.98 279.41 281.81 279.91 281.81 279.91 285.67 280.4 285.67 280.4 289.55 280.86 289.55 280.86 293.44 281.31 293.44 281.31 297.35 281.74 297.35 281.74 301.28 282.15 301.28 282.15 305.23 282.55 305.23 282.55 309.18 282.93 309.18 282.93 313.14 283.29 313.14 283.29 317.12 283.63 317.12 283.63 321.1 283.96 321.1 283.96 325.08 284.27 325.08 284.27 329.07 284.56 329.07 284.56 333.06 284.84 333.06 284.84 337.05 285.1 337.05 285.1 341.03 285.34 341.03 285.34 345.02 285.56 345.02 285.56 349 285.77 349 285.77 352.97 285.96 352.97 285.96 356.93 286.13 356.93 286.13 360.89 286.29 360.89 286.29 364.83 286.44 364.83 286.44 368.77 286.56 368.77 286.56 372.69 286.67 372.69 286.67 376.59 286.77 376.59 286.77 380.48 286.85 380.48 286.85 384.35 286.92 384.35 286.92 388.21 286.97 388.21 286.97 392.04 287 392.04 287 395.85 287.03 395.85 287.03 399.64 287.03 399.64 287.03 403.43 287.03 403.43 287.03 407.24 287.01 407.24 287.01 411.07 286.98 411.07 286.98 414.92 286.93 414.92 286.93 418.79 286.86 418.79 286.86 422.68 286.79 422.68 286.79 426.58 286.69 426.58 286.69 430.49 286.58 430.49 286.58 434.42 286.46 434.42 286.46 438.37 286.32 438.37 286.32 442.32 286.17 442.32 286.17 446.28 285.99 446.28 285.99 450.26 285.81 450.26 285.81 454.23 285.6 454.23 285.6 458.22 285.38 458.22 285.38 462.2 285.14 462.2 285.14 466.19 284.89 466.19 284.89 470.18 284.62 470.18 284.62 474.17 284.33 474.17 284.33 478.15 284.02 478.15 284.02 482.14 283.7 482.14 283.7 486.11 283.36 486.11 283.36 490.08 283 490.08 283 494.03 282.62 494.03 282.62 497.98 282.23 497.98 282.23 501.91 281.82 501.91 281.82 505.82 281.39 505.82 281.39 509.72 280.95 509.72 280.95 513.6 280.48 513.6 280.48 517.46 280 517.46 280 521.3 279.51 521.3 279.51 525.12 278.99 525.12 278.99 528.9 278.46 528.9 278.46 532.66 277.91 532.66 277.91 536.39 277.35 536.39 277.35 540.09 276.76 540.09 276.76 543.76 276.16 543.76 276.16 547.39 275.55 547.39 275.55 550.98 274.92 550.98 274.92 552.77 274.6 552.77 274.6 554.54 274.27 554.54 274.27 556.3 273.94 556.3 273.94 558.05 273.61 558.05 273.61 559.8 273.27 559.8 273.27 561.53 272.93 561.53 272.93 563.25 272.58 563.25 272.58 564.96 272.23 564.96 272.23 566.66 271.88 566.66 271.88 568.34 271.52 568.34 271.52 570.02 271.16 570.02 271.16 571.68 270.8 571.68 270.8 573.33 270.43 573.33 270.43 574.97 270.06 574.97 270.06 576.6 269.68 576.6 269.68 578.21 269.31 578.21 269.31 579.82 268.92 579.82 268.92 581.4 268.54 581.4 268.54 582.98 268.15 582.98 268.15 584.54 267.76 584.54 267.76 586.09 267.36 586.09 267.36 587.62 266.96 587.62 266.96 589.15 266.56 589.15 266.56 590.65 266.16 590.65 266.16 592.15 265.75 592.15 265.75 593.63 265.34 593.63 265.34 595.09 264.92 595.09 264.92 596.54 264.51 596.54 264.51 597.97 264.09 597.97 264.09 599.39 263.66 599.39 263.66 600.8 263.24 600.8 263.24 602.19 262.81 602.19 262.81 603.56 262.38 603.56 262.38 604.92 261.94 604.92 261.94 606.27 261.51 606.27 261.51 607.6 261.07 607.6 261.07 608.91 260.63 608.91 260.63 610.2 260.18 610.2 260.18 611.49 259.74 611.49 259.74 612.75 259.29 612.75 259.29 614 258.84 614 258.84 615.23 258.38 615.23 258.38 616.45 257.93 616.45 257.93 617.64 257.47 617.64 257.47 618.83 257.01 618.83 257.01 619.99 256.54 619.99 256.54 621.14 256.08 621.14 256.08 622.28 255.61 622.28 255.61 623.39 255.15 623.39 255.15 624.49 254.68 624.49 254.68 625.57 254.2 625.57 254.2 626.64 253.73 626.64 253.73 627.68 253.26 627.68 253.26 628.71 252.78 628.71 252.78 629.73 252.3 629.73 252.3 630.72 251.82 630.72 251.82 631.7 251.34 631.7 251.34 632.66 250.86 632.66 250.86 633.61 250.37 633.61 250.37 634.53 249.89 634.53 249.89 635.44 249.4 635.44 249.4 636.33 248.92 636.33 248.92 637.21 248.43 637.21 248.43 638.06 247.94 638.06 247.94 638.9 247.45 638.9 247.45 639.73 246.96 639.73 246.96 640.53 246.46 640.53 246.46 641.32 245.97 641.32 245.97 642.09 245.48 642.09 245.48 642.84 244.98 642.84 244.98 643.57 244.49 643.57 244.49 644.29 243.99 644.29 243.99 644.99 243.5 644.99 243.5 645.67 243 645.67 243 646.34 242.5 646.34 242.5 646.99 242 646.99 242 647.62 241.51 647.62 241.51 648.23 241.01 648.23 241.01 648.82 240.51 648.82 240.51 649.4 240.01 649.4 240.01 649.96 239.51 649.96 239.51 650.51 239.01 650.51 239.01 651.04 238.52 651.04 238.52 651.55 238.02 651.55 238.02 652.04 237.52 652.04 237.52 652.52 237.02 652.52 237.02 652.98 236.52 652.98 236.52 653.42 236.02 653.42 236.02 653.85 235.53 653.85 235.53 654.26 235.03 654.26 235.03 654.65 234.53 654.65 234.53 655.03 234.04 655.03 234.04 655.39 233.54 655.39 233.54 655.73 233.04 655.73 233.04 656.06 232.55 656.06 232.55 656.37 232.06 656.37 232.06 656.67 231.56 656.67 231.56 656.95 231.07 656.95 231.07 657.22 230.58 657.22 230.58 657.46 230.09 657.46 230.09 657.7 229.59 657.7 229.59 657.92 229.11 657.92 229.11 658.12 228.62 658.12 228.62 658.31 228.13 658.31 228.13 658.48 227.64 658.48 227.64 658.63 227.16 658.63 227.16 658.78 226.67 658.78 226.67 658.9 226.19 658.9 226.19 659.01 225.71 659.01 225.71 659.11 225.22 659.11 225.22 659.19 224.74 659.19 224.74 659.26 224.26 659.26 224.26 659.32 223.79 659.32 223.79 659.36 223.31 659.36 223.31 659.38 222.84 659.38 222.84 659.4 222.36 659.4 222.36 659.4 222.24 659.4 222.24 659.4 222.19 659.4 222.19 659.4 222.06 659.4 222.06 659.4 221.53 659.4 221.53 659.4 220.48 659.4 220.48 659.4 218.38 659.4 218.38 659.4 209.99 659.4 209.99 659.4 193.2 659.4 193.2 659.4 159.63 659.4 159.63 659.4 92.49 659.4 92.49 659.39 92.96 659.39 92.96 659.37 93.43 659.37 93.43 659.33 93.91 659.33 93.91 659.29 94.39 659.29 94.39 659.22 94.87 659.22 94.87 659.14 95.34 659.14 95.34 659.05 95.83 659.05 95.83 658.95 96.31 658.95 96.31 658.82 96.79 658.82 96.79 658.69 97.28 658.69 97.28 658.54 97.76 658.54 97.76 658.37 98.25 658.37 98.25 658.19 98.73 658.19 98.73 657.99 99.22 657.99 99.22 657.78 99.71 657.78 99.71 657.55 100.2 657.55 100.2 657.31 100.69 657.31 100.69 657.05 101.19 657.05 101.19 656.78 101.68 656.78 101.68 656.49 102.17 656.49 102.17 656.18 102.67 656.18 102.67 655.86 103.16 655.86 103.16 655.52 103.66 655.52 103.66 655.17 104.15 655.17 104.15 654.8 104.65 654.8 104.65 654.41 105.14 654.41 105.14 654 105.64 654 105.64 653.58 106.14 653.58 106.14 653.15 106.64 653.15 106.64 652.69 107.13 652.69 107.13 652.22 107.63 652.22 107.63 651.74 108.13 651.74 108.13 651.23 108.63 651.23 108.63 650.71 109.13 650.71 109.13 650.17 109.63 650.17 109.63 649.62 110.13 649.62 110.13 649.04 110.62 649.04 110.62 648.45 111.12 648.45 111.12 647.85 111.62 647.85 111.62 647.22 112.12 647.22 112.12 646.58 112.62 646.58 112.62 645.92 113.11 645.92 113.11 645.25 113.61 645.25 113.61 644.56 114.11 644.56 114.11 643.85 114.6 643.85 114.6 643.12 115.1 643.12 115.1 642.37 115.59 642.37 115.59 641.61 116.09 641.61 116.09 640.83 116.58 640.83 116.58 640.03 117.07 640.03 117.07 639.22 117.56 639.22 117.56 638.38 118.06 638.38 118.06 637.53 118.55 637.53 118.55 636.66 119.03 636.66 119.03 635.78 119.52 635.78 119.52 634.88 120.01 634.88 120.01 633.96 120.49 633.96 120.49 633.02 120.98 633.02 120.98 632.06 121.46 632.06 121.46 631.09 121.94 631.09 121.94 630.1 122.42 630.1 122.42 629.1 122.9 629.1 122.9 628.07 123.38 628.07 123.38 627.03 123.85 627.03 123.85 625.97 124.33 625.97 124.33 624.9 124.8 624.9 124.8 623.81 125.27 623.81 125.27 622.7 125.74 622.7 125.74 621.57 126.21 621.57 126.21 620.43 126.67 620.43 126.67 619.27 127.14 619.27 127.14 618.09 127.6 618.09 127.6 616.9 128.05 616.9 128.05 615.69 128.51 615.69 128.51 614.46 128.97 614.46 128.97 613.22 129.42 613.22 129.42 611.96 129.87 611.96 129.87 610.69 130.32 610.69 130.32 609.4 130.76 609.4 130.76 608.09 131.2 608.09 131.2 606.77 131.64 606.77 131.64 605.43 132.08 605.43 132.08 604.08 132.52 604.08 132.52 602.71 132.95 602.71 132.95 601.32 133.38 601.32 133.38 599.92 133.81 599.92 133.81 598.51 134.23 598.51 134.23 597.08 134.65 597.08 134.65 595.64 135.07 595.64 135.07 594.18 135.49 594.18 135.49 592.7 135.9 592.7 135.9 591.22 136.31 591.22 136.31 589.71 136.71 589.71 136.71 588.2 137.12 588.2 137.12 586.67 137.52 586.67 137.52 585.13 137.91 585.13 137.91 583.57 138.31 583.57 138.31 582 138.7 582 138.7 580.41 139.08 580.41 139.08 578.82 139.46 578.82 139.46 577.21 139.84 577.21 139.84 575.59 140.22 575.59 140.22 573.95 140.59 573.95 140.59 572.3 140.96 572.3 140.96 570.65 141.33 570.65 141.33 568.97 141.69 568.97 141.69 567.29 142.05 567.29 142.05 565.6 142.4 565.6 142.4 563.89 142.75 563.89 142.75 562.18 143.1 562.18 143.1 560.45 143.44 560.45 143.44 558.71 143.78 558.71 143.78 556.96 144.12 556.96 144.12 555.2 144.45 555.2 144.45 553.43 144.77 553.43 144.77 551.65 145.1 551.65 145.1 548.07 145.73 548.07 145.73 544.44 146.35 544.44 146.35 540.78 146.95 540.78 146.95 537.09 147.54 537.09 147.54 533.37 148.11 533.37 148.11 529.61 148.66 529.61 148.66 525.83 149.2 525.83 149.2 522.02 149.71 522.02 149.71 518.19 150.21 518.19 150.21 514.33 150.7 514.33 150.7 510.45 151.16 510.45 151.16 506.56 151.61 506.56 151.61 502.65 152.04 502.65 152.04 498.72 152.46 498.72 152.46 494.77 152.85 494.77 152.85 490.82 153.23 490.82 153.23 486.86 153.59 486.86 153.59 482.88 153.94 482.88 153.94 478.9 154.26 478.9 154.26 474.92 154.57 474.92 154.57 470.93 154.86 470.93 154.86 466.94 155.14 466.94 155.14 462.95 155.4 462.95 155.4 458.97 155.64 458.97 155.64 454.98 155.86 454.98 155.86 451 156.07 451 156.07 447.03 156.26 447.03 156.26 443.07 156.44 443.07 156.44 439.11 156.59 439.11 156.59 435.17 156.74 435.17 156.74 431.23 156.86 431.23 156.86 427.31 156.98 427.31 156.98 423.41 157.07 423.41 157.07 419.52 157.15 419.52 157.15 415.65 157.22 415.65 157.22 411.79 157.27 411.79 157.27 407.96 157.31 407.96 157.31 404.15 157.33 404.15 157.33 400.36 157.34 400.36 157.34 396.57 157.33 396.57 157.33 392.76 157.31 392.76 157.31 388.93 157.28 388.93 157.28 385.08 157.23 385.08 157.23 381.21 157.17 381.21 157.17 377.32 157.09 377.32 157.09 373.42 156.99 373.42 156.99 369.51 156.89 369.51 156.89 365.58 156.76 365.58 156.76 361.63 156.62 361.63 156.62 357.68 156.47 357.68 156.47 353.72 156.3 353.72 156.3 349.74 156.11 349.74 156.11 345.77 155.9 345.77 155.9 341.78 155.68 341.78 155.68 337.8 155.44 337.8 155.44 333.81 155.19 333.81 155.19 329.82 154.92 329.82 154.92 325.83 154.63 325.83 154.63 321.85 154.32 321.85 154.32 317.86 154 317.86 154 313.89 153.66 313.89 153.66 309.92 153.3 309.92 153.3 305.97 152.93 305.97 152.93 302.02 152.53 302.02 152.53 298.09 152.12 298.09 152.12 294.18 151.69 294.18 151.69 290.28 151.25 290.28 151.25 286.4 150.79 286.4 150.79 282.54 150.31 282.54 150.31 278.7 149.81 278.7 149.81 274.88 149.29 274.88 149.29 271.1 148.76 271.1 148.76 267.34 148.21 267.34 148.21 263.61 147.65 263.61 147.65 259.91 147.07 259.91 147.07 256.24 146.47 256.24 146.47 252.61 145.85 252.61 145.85 249.02 145.22 249.02 145.22 247.23 144.9 247.23 144.9 245.46 144.57 245.46 144.57 243.7 144.24 243.7 144.24 241.95 143.91 241.95 143.91 240.2 143.57 240.2 143.57 238.47 143.23 238.47 143.23 236.75 142.88 236.75 142.88 235.04 142.53 235.04 142.53 233.34 142.18 233.34 142.18 231.66 141.82 231.66 141.82 229.98 141.46 229.98 141.46 228.32 141.1 228.32 141.1 226.67 140.73 226.67 140.73 225.03 140.36 225.03 140.36 223.4 139.99 223.4 139.99 221.79 139.61 221.79 139.61 220.18 139.23 220.18 139.23 218.6 138.84 218.6 138.84 217.02 138.45 217.02 138.45 215.46 138.06 215.46 138.06 213.91 137.66 213.91 137.66 212.38 137.27 212.38 137.27 210.85 136.86 210.85 136.86 209.35 136.46 209.35 136.46 207.85 136.05 207.85 136.05 206.37 135.64 206.37 135.64 204.91 135.23 204.91 135.23 203.46 134.81 203.46 134.81 202.03 134.39 202.03 134.39 200.61 133.97 200.61 133.97 199.2 133.54 199.2 133.54 197.81 133.11 197.81 133.11 196.44 132.68 196.44 132.68 195.08 132.25 195.08 132.25 193.73 131.81 193.73 131.81 192.4 131.37 192.4 131.37 191.09 130.93 191.09 130.93 189.8 130.48 189.8 130.48 188.51 130.04 188.51 130.04 187.25 129.59 187.25 129.59 186 129.14 186 129.14 184.77 128.68 184.77 128.68 183.55 128.23 183.55 128.23 182.36 127.77 182.36 127.77 181.17 127.31 181.17 127.31 180.01 126.85 180.01 126.85 178.86 126.38 178.86 126.38 177.72 125.92 177.72 125.92 176.61 125.45 176.61 125.45 175.51 124.98 175.51 124.98 174.43 124.51 174.43 124.51 173.36 124.03 173.36 124.03 172.32 123.56 172.32 123.56 171.29 123.08 171.29 123.08 170.27 122.6 170.27 122.6 169.28 122.12 169.28 122.12 168.3 121.64 168.3 121.64 167.34 121.16 167.34 121.16 166.39 120.68 166.39 120.68 165.47 120.19 165.47 120.19 164.56 119.71 164.56 119.71 163.67 119.22 163.67 119.22 162.79 118.73 162.79 118.73 161.94 118.24 161.94 118.24 161.1 117.75 161.1 117.75 160.27 117.26 160.27 117.26 159.47 116.77 159.47 116.77 158.68 116.27 158.68 116.27 157.91 115.78 157.91 115.78 157.16 115.28 157.16 115.28 156.43 114.79 156.43 114.79 155.71 114.29 155.71 114.29 155.01 113.8 155.01 113.8 154.33 113.3 154.33 113.3 153.66 112.8 153.66 112.8 153.01 112.31 153.01 112.31 152.38 111.81 152.38 111.81 151.77 111.31 151.77 111.31 151.18 110.81 151.18 110.81 150.6 110.31 150.6 110.31 150.04 109.81 150.04 109.81 149.49 109.32 149.49 109.32 148.96 108.82 148.96 108.82 148.45 108.32 148.45 108.32 147.96 107.82 147.96 107.82 147.48 107.32 147.48 107.32 147.02 106.82 147.02 106.82 146.58 106.33 146.58 106.33 146.15 105.83 146.15 105.83 145.74 105.33 145.74 105.33 145.35 104.83 145.35 104.83 144.97 104.34 144.97 104.34 144.61 103.84 144.61 103.84 144.27 103.35 144.27 103.35 143.94 102.85 143.94 102.85 143.63 102.36 143.63 102.36 143.33 101.86 143.33 101.86 143.05 101.37 143.05 101.37 142.78 100.88 142.78 100.88 142.54 100.39 142.54 100.39 142.3 99.9 142.3 99.9 142.08 99.41 142.08 99.41 141.88 98.92 141.88 98.92 141.69 98.43 141.69 98.43 141.52 97.94 141.52 97.94 141.37 97.46 141.37 97.46 141.22 96.97 141.22 96.97 141.1 96.49 141.1 96.49 140.99 96.01 140.99 96.01 140.89 95.53 140.89 95.53 140.81 95.05 140.81 95.05 140.74 94.57 140.74 94.57 140.68 94.09 140.68 94.09 140.64 93.61 140.64 93.61 140.62 93.14 140.62 93.14 140.6 92.66 140.6 92.66 140.6 92.55 140.6 92.55 140.6 92.49 140.6 92.49 140.6 92.62 140.6 92.62 140.6 93.14 140.6 93.14 140.6 94.19 140.6 94.19 140.6 96.29 140.6 96.29 140.6 104.68 140.6 104.68 140.6 121.47 140.6 121.47 140.6 155.04 140.6 155.04 140.6 222.19"
fill="#d19a66" stroke="black" stroke-width="9.5"/>

<path d="M659.4 377.82 659.39 378.3 659.39 378.3 659.37 378.77 659.37 378.77 659.33 379.25 659.33 379.25 659.29 379.72 659.29 379.72 659.22 380.2 659.22 380.2 659.14 380.68 659.14 380.68 659.05 381.16 659.05 381.16 658.95 381.64 658.95 381.64 658.82 382.13 658.82 382.13 658.69 382.61 658.69 382.61 658.54 383.1 658.54 383.1 658.37 383.58 658.37 383.58 658.19 384.07 658.19 384.07 657.99 384.56 657.99 384.56 657.78 385.05 657.78 385.05 657.55 385.54 657.55 385.54 657.31 386.03 657.31 386.03 657.05 386.52 657.05 386.52 656.78 387.01 656.78 387.01 656.49 387.51 656.49 387.51 656.18 388 656.18 388 655.86 388.5 655.86 388.5 655.52 388.99 655.52 388.99 655.17 389.49 655.17 389.49 654.8 389.98 654.8 389.98 654.41 390.48 654.41 390.48 654 390.98 654 390.98 653.58 391.48 653.58 391.48 653.15 391.97 653.15 391.97 652.69 392.47 652.69 392.47 652.22 392.97 652.22 392.97 651.74 393.47 651.74 393.47 651.23 393.97 651.23 393.97 650.71 394.47 650.71 394.47 650.17 394.96 650.17 394.96 649.62 395.46 649.62 395.46 649.04 395.96 649.04 395.96 648.45 396.46 648.45 396.46 647.85 396.96 647.85 396.96 647.22 397.46 647.22 397.46 646.58 397.95 646.58 397.95 645.92 398.45 645.92 398.45 645.25 398.95 645.25 398.95 644.56 399.44 644.56 399.44 643.85 399.94 643.85 399.94 643.12 400.44 643.12 400.44 642.37 400.93 642.37 400.93 641.61 401.42 641.61 401.42 640.83 401.92 640.83 401.92 640.03 402.41 640.03 402.41 639.22 402.9 639.22 402.9 638.38 403.39 638.38 403.39 637.53 403.88 637.53 403.88 636.66 404.37 636.66 404.37 635.78 404.86 635.78 404.86 634.88 405.35 634.88 405.35 633.96 405.83 633.96 405.83 633.02 406.32 633.02 406.32 632.06 406.8 632.06 406.8 631.09 407.28 631.09 407.28 630.1 407.76 630.1 407.76 629.1 408.24 629.1 408.24 628.07 408.72 628.07 408.72 627.03 409.19 627.03 409.19 625.97 409.67 625.97 409.67 624.9 410.14 624.9 410.14 623.81 410.61 623.81 410.61 622.7 411.08 622.7 411.08 621.57 411.54 621.57 411.54 620.43 412.01 620.43 412.01 619.27 412.47 619.27 412.47 618.09 412.93 618.09 412.93 616.9 413.39 616.9 413.39 615.69 413.85 615.69 413.85 614.46 414.3 614.46 414.3 613.22 414.76 613.22 414.76 611.96 415.21 611.96 415.21 610.69 415.65 610.69 415.65 609.4 416.1 609.4 416.1 608.09 416.54 608.09 416.54 606.77 416.98 606.77 416.98 605.43 417.42 605.43 417.42 604.08 417.85 604.08 417.85 602.71 418.29 602.71 418.29 601.32 418.72 601.32 418.72 599.92 419.14 599.92 419.14 598.51 419.57 598.51 419.57 597.08 419.99 597.08 419.99 595.64 420.41 595.64 420.41 594.18 420.82 594.18 420.82 592.7 421.23 592.7 421.23 591.22 421.64 591.22 421.64 589.71 422.05 589.71 422.05 588.2 422.45 588.2 422.45 586.67 422.85 586.67 422.85 585.13 423.25 585.13 423.25 583.57 423.64 583.57 423.64 582 424.03 582 424.03 580.41 424.42 580.41 424.42 578.82 424.8 578.82 424.8 577.21 425.18 577.21 425.18 575.59 425.56 575.59 425.56 573.95 425.93 573.95 425.93 572.3 426.3 572.3 426.3 570.65 426.66 570.65 426.66 568.97 427.03 568.97 427.03 567.29 427.38 567.29 427.38 565.6 427.74 565.6 427.74 563.89 428.09 563.89 428.09 562.18 428.44 562.18 428.44 560.45 428.78 560.45 428.78 558.71 429.12 558.71 429.12 556.96 429.45 556.96 429.45 555.2 429.78 555.2 429.78 553.43 430.11 553.43 430.11 551.65 430.43 551.65 430.43 548.07 431.07 548.07 431.07 544.44 431.69 544.44 431.69 540.78 432.29 540.78 432.29 537.09 432.88 537.09 432.88 533.37 433.44 533.37 433.44 529.61 434 529.61 434 525.83 434.53 525.83 434.53 522.02 435.05 522.02 435.05 518.19 435.55 518.19 435.55 514.33 436.03 514.33 436.03 510.45 436.5 510.45 436.5 506.56 436.95 506.56 436.95 502.65 437.38 502.65 437.38 498.72 437.79 498.72 437.79 494.77 438.19 494.77 438.19 490.82 438.57 490.82 438.57 486.86 438.93 486.86 438.93 482.88 439.27 482.88 439.27 478.9 439.6 478.9 439.6 474.92 439.91 474.92 439.91 470.93 440.2 470.93 440.2 466.94 440.48 466.94 440.48 462.95 440.73 462.95 440.73 458.97 440.97 458.97 440.97 454.98 441.2 454.98 441.2 451 441.41 451 441.41 447.03 441.6 447.03 441.6 443.07 441.77 443.07 441.77 439.11 441.93 439.11 441.93 435.17 442.07 435.17 442.07 431.23 442.2 431.23 442.2 427.31 442.31 427.31 442.31 423.41 442.41 423.41 442.41 419.52 442.49 419.52 442.49 415.65 442.55 415.65 442.55 411.79 442.61 411.79 442.61 407.96 442.64 407.96 442.64 404.15 442.66 404.15 442.66 400.36 442.67 400.36 442.67 396.57 442.67 396.57 442.67 392.76 442.65 392.76 442.65 388.93 442.61 388.93 442.61 385.08 442.57 385.08 442.57 381.21 442.5 381.21 442.5 377.32 442.42 377.32 442.42 373.42 442.33 373.42 442.33 369.51 442.22 369.51 442.22 365.58 442.1 365.58 442.1 361.63 441.96 361.63 441.96 357.68 441.8 357.68 441.8 353.72 441.63 353.72 441.63 349.74 441.44 349.74 441.44 345.77 441.24 345.77 441.24 341.78 441.02 341.78 441.02 337.8 440.78 337.8 440.78 333.81 440.53 333.81 440.53 329.82 440.25 329.82 440.25 325.83 439.96 325.83 439.96 321.85 439.66 321.85 439.66 317.86 439.34 317.86 439.34 313.89 439 313.89 439 309.92 438.64 309.92 438.64 305.97 438.26 305.97 438.26 302.02 437.87 302.02 437.87 298.09 437.46 298.09 437.46 294.18 437.03 294.18 437.03 290.28 436.59 290.28 436.59 286.4 436.12 286.4 436.12 282.54 435.64 282.54 435.64 278.7 435.15 278.7 435.15 274.88 434.63 274.88 434.63 271.1 434.1 271.1 434.1 267.34 433.55 267.34 433.55 263.61 432.98 263.61 432.98 259.91 432.4 259.91 432.4 256.24 431.8 256.24 431.8 252.61 431.19 252.61 431.19 249.02 430.56 249.02 430.56 247.23 430.23 247.23 430.23 245.46 429.91 245.46 429.91 243.7 429.58 243.7 429.58 241.95 429.24 241.95 429.24 240.2 428.91 240.2 428.91 238.47 428.56 238.47 428.56 236.75 428.22 236.75 428.22 235.04 427.87 235.04 427.87 233.34 427.52 233.34 427.52 231.66 427.16 231.66 427.16 229.98 426.8 229.98 426.8 228.32 426.44 228.32 426.44 226.67 426.07 226.67 426.07 225.03 425.7 225.03 425.7 223.4 425.32 223.4 425.32 221.79 424.94 221.79 424.94 220.18 424.56 220.18 424.56 218.6 424.18 218.6 424.18 217.02 423.79 217.02 423.79 215.46 423.4 215.46 423.4 213.91 423 213.91 423 212.38 422.6 212.38 422.6 210.85 422.2 210.85 422.2 209.35 421.8 209.35 421.8 207.85 421.39 207.85 421.39 206.37 420.98 206.37 420.98 204.91 420.56 204.91 420.56 203.46 420.15 203.46 420.15 202.03 419.73 202.03 419.73 200.61 419.3 200.61 419.3 199.2 418.88 199.2 418.88 197.81 418.45 197.81 418.45 196.44 418.02 196.44 418.02 195.08 417.58 195.08 417.58 193.73 417.15 193.73 417.15 192.4 416.71 192.4 416.71 191.09 416.26 191.09 416.26 189.8 415.82 189.8 415.82 188.51 415.37 188.51 415.37 187.25 414.92 187.25 414.92 186 414.47 186 414.47 184.77 414.02 184.77 414.02 183.55 413.56 183.55 413.56 182.36 413.11 182.36 413.11 181.17 412.65 181.17 412.65 180.01 412.18 180.01 412.18 178.86 411.72 178.86 411.72 177.72 411.25 177.72 411.25 176.61 410.78 176.61 410.78 175.51 410.31 175.51 410.31 174.43 409.84 174.43 409.84 173.36 409.37 173.36 409.37 172.32 408.89 172.32 408.89 171.29 408.42 171.29 408.42 170.27 407.94 170.27 407.94 169.28 407.46 169.28 407.46 168.3 406.98 168.3 406.98 167.34 406.5 167.34 406.5 166.39 406.01 166.39 406.01 165.47 405.53 165.47 405.53 164.56 405.04 164.56 405.04 163.67 404.55 163.67 404.55 162.79 404.07 162.79 404.07 161.94 403.58 161.94 403.58 161.1 403.09 161.1 403.09 160.27 402.59 160.27 402.59 159.47 402.1 159.47 402.1 158.68 401.61 158.68 401.61 157.91 401.12 157.91 401.12 157.16 400.62 157.16 400.62 156.43 400.13 156.43 400.13 155.71 399.63 155.71 399.63 155.01 399.13 155.01 399.13 154.33 398.64 154.33 398.64 153.66 398.14 153.66 398.14 153.01 397.64 153.01 397.64 152.38 397.14 152.38 397.14 151.77 396.65 151.77 396.65 151.18 396.15 151.18 396.15 150.6 395.65 150.6 395.65 150.04 395.15 150.04 395.15 149.49 394.65 149.49 394.65 148.96 394.15 148.96 394.15 148.45 393.66 148.45 393.66 147.96 393.16 147.96 393.16 147.48 392.66 147.48 392.66 147.02 392.16 147.02 392.16 146.58 391.66 146.58 391.66 146.15 391.16 146.15 391.16 145.74 390.67 145.74 390.67 145.35 390.17 145.35 390.17 144.97 389.67 144.97 389.67 144.61 389.18 144.61 389.18 144.27 388.68 144.27 388.68 143.94 388.19 143.94 388.19 143.63 387.69 143.63 387.69 143.33 387.2 143.33 387.2 143.05 386.71 143.05 386.71 142.78 386.21 142.78 386.21 142.54 385.72 142.54 385.72 142.3 385.23 142.3 385.23 142.08 384.74 142.08 384.74 141.88 384.25 141.88 384.25 141.69 383.77 141.69 383.77 141.52 383.28 141.52 383.28 141.37 382.79 141.37 382.79 141.22 382.31 141.22 382.31 141.1 381.83 141.1 381.83 140.99 381.34 140.99 381.34 140.89 380.86 140.89 380.86 140.81 380.38 140.81 380.38 140.74 379.9 140.74 379.9 140.68 379.43 140.68 379.43 140.64 378.95 140.64 378.95 140.62 378.47 140.62 378.47 140.6 378 140.6 378 140.6 377.88 140.6 377.88 140.6 377.82 140.6 377.82 140.6 377.69 140.6 377.69 140.6 377.17 140.6 377.17 140.6 376.12 140.6 376.12 140.6 374.02 140.6 374.02 140.6 365.63 140.6 365.63 140.6 348.84 140.6 348.84 140.6 315.27 140.6 315.27 140.6 248.12 140.6 248.12 140.61 248.6 140.61 248.6 140.63 249.07 140.63 249.07 140.67 249.55 140.67 249.55 140.71 250.02 140.71 250.02 140.78 250.5 140.78 250.5 140.86 250.98 140.86 250.98 140.95 251.46 140.95 251.46 141.05 251.95 141.05 251.95 141.18 252.43 141.18 252.43 141.31 252.91 141.31 252.91 141.46 253.4 141.46 253.4 141.63 253.89 141.63 253.89 141.81 254.37 141.81 254.37 142.01 254.86 142.01 254.86 142.22 255.35 142.22 255.35 142.45 255.84 142.45 255.84 142.69 256.33 142.69 256.33 142.95 256.82 142.95 256.82 143.22 257.32 143.22 257.32 143.51 257.81 143.51 257.81 143.82 258.3 143.82 258.3 144.14 258.8 144.14 258.8 144.48 259.29 144.48 259.29 144.83 259.79 144.83 259.79 145.2 260.29 145.2 260.29 145.59 260.78 145.59 260.78 146 261.28 146 261.28 146.42 261.78 146.42 261.78 146.85 262.27 146.85 262.27 147.31 262.77 147.31 262.77 147.78 263.27 147.78 263.27 148.26 263.77 148.26 263.77 148.77 264.27 148.77 264.27 149.29 264.77 149.29 264.77 149.83 265.27 149.83 265.27 150.38 265.76 150.38 265.76 150.96 266.26 150.96 266.26 151.55 266.76 151.55 266.76 152.15 267.26 152.15 267.26 152.78 267.76 152.78 267.76 153.42 268.25 153.42 268.25 154.08 268.75 154.08 268.75 154.75 269.25 154.75 269.25 155.44 269.75 155.44 269.75 156.15 270.24 156.15 270.24 156.88 270.74 156.88 270.74 157.63 271.23 157.63 271.23 158.39 271.73 158.39 271.73 159.17 272.22 159.17 272.22 159.97 272.71 159.97 272.71 160.78 273.2 160.78 273.2 161.62 273.69 161.62 273.69 162.47 274.18 162.47 274.18 163.34 274.67 163.34 274.67 164.22 275.16 164.22 275.16 165.12 275.65 165.12 275.65 166.04 276.13 166.04 276.13 166.98 276.62 166.98 276.62 167.94 277.1 167.94 277.1 168.91 277.58 168.91 277.58 169.9 278.06 169.9 278.06 170.9 278.54 170.9 278.54 171.93 279.02 171.93 279.02 172.97 279.49 172.97 279.49 174.03 279.97 174.03 279.97 175.1 280.44 175.1 280.44 176.19 280.91 176.19 280.91 177.3 281.38 177.3 281.38 178.43 281.85 178.43 281.85 179.57 282.31 179.57 282.31 180.73 282.77 180.73 282.77 181.91 283.23 181.91 283.23 183.1 283.69 183.1 283.69 184.31 284.15 184.31 284.15 185.54 284.6 185.54 284.6 186.78 285.06 186.78 285.06 188.04 285.51 188.04 285.51 189.31 285.95 189.31 285.95 190.6 286.4 190.6 286.4 191.91 286.84 191.91 286.84 193.23 287.28 193.23 287.28 194.57 287.72 194.57 287.72 195.92 288.16 195.92 288.16 197.29 288.59 197.29 288.59 198.68 289.02 198.68 289.02 200.08 289.44 200.08 289.44 201.49 289.87 201.49 289.87 202.92 290.29 202.92 290.29 204.36 290.71 204.36 290.71 205.82 291.12 205.82 291.12 207.3 291.54 207.3 291.54 208.78 291.94 208.78 291.94 210.29 292.35 210.29 292.35 211.8 292.75 211.8 292.75 213.33 293.15 213.33 293.15 214.87 293.55 214.87 293.55 216.43 293.94 216.43 293.94 218 294.33 218 294.33 219.59 294.72 219.59 294.72 221.18 295.1 221.18 295.1 222.79 295.48 222.79 295.48 224.41 295.86 224.41 295.86 226.05 296.23 226.05 296.23 227.7 296.6 227.7 296.6 229.35 296.97 229.35 296.97 231.03 297.33 231.03 297.33 232.71 297.69 232.71 297.69 234.4 298.04 234.4 298.04 236.11 298.39 236.11 298.39 237.82 298.74 237.82 298.74 239.55 299.08 239.55 299.08 241.29 299.42 241.29 299.42 243.04 299.75 243.04 299.75 244.8 300.09 244.8 300.09 246.57 300.41 246.57 300.41 248.35 300.74 248.35 300.74 251.93 301.37 251.93 301.37 255.56 301.99 255.56 301.99 259.22 302.59 259.22 302.59 262.91 303.18 262.91 303.18 266.63 303.75 266.63 303.75 270.39 304.3 270.39 304.3 274.17 304.83 274.17 304.83 277.98 305.35 277.98 305.35 281.81 305.85 281.81 305.85 285.67 306.34 285.67 306.34 289.55 306.8 289.55 306.8 293.44 307.25 293.44 307.25 297.35 307.68 297.35 307.68 301.28 308.09 301.28 308.09 305.23 308.49 305.23 308.49 309.18 308.87 309.18 308.87 313.14 309.23 313.14 309.23 317.12 309.57 317.12 309.57 321.1 309.9 321.1 309.9 325.08 310.21 325.08 310.21 329.07 310.5 329.07 310.5 333.06 310.78 333.06 310.78 337.05 311.04 337.05 311.04 341.03 311.28 341.03 311.28 345.02 311.5 345.02 311.5 349 311.71 349 311.71 352.97 311.9 352.97 311.9 356.93 312.07 356.93 312.07 360.89 312.23 360.89 312.23 364.83 312.38 364.83 312.38 368.77 312.5 368.77 312.5 372.69 312.61 372.69 312.61 376.59 312.71 376.59 312.71 380.48 312.79 380.48 312.79 384.35 312.86 384.35 312.86 388.21 312.91 388.21 312.91 392.04 312.94 392.04 312.94 395.85 312.97 395.85 312.97 399.64 312.97 399.64 312.97 403.43 312.97 403.43 312.97 407.24 312.95 407.24 312.95 411.07 312.91 411.07 312.91 414.92 312.87 414.92 312.87 418.79 312.8 418.79 312.8 422.68 312.73 422.68 312.73 426.58 312.63 426.58 312.63 430.49 312.52 430.49 312.52 434.42 312.4 434.42 312.4 438.37 312.26 438.37 312.26 442.32 312.11 442.32 312.11 446.28 311.93 446.28 311.93 450.26 311.75 450.26 311.75 454.23 311.54 454.23 311.54 458.22 311.32 458.22 311.32 462.2 311.08 462.2 311.08 466.19 310.83 466.19 310.83 470.18 310.56 470.18 310.56 474.17 310.27 474.17 310.27 478.15 309.96 478.15 309.96 482.14 309.64 482.14 309.64 486.11 309.3 486.11 309.3 490.08 308.94 490.08 308.94 494.03 308.56 494.03 308.56 497.98 308.17 497.98 308.17 501.91 307.76 501.91 307.76 505.82 307.33 505.82 307.33 509.72 306.89 509.72 306.89 513.6 306.42 513.6 306.42 517.46 305.94 517.46 305.94 521.3 305.45 521.3 305.45 525.12 304.93 525.12 304.93 528.9 304.4 528.9 304.4 532.66 303.85 532.66 303.85 536.39 303.29 536.39 303.29 540.09 302.7 540.09 302.7 543.76 302.1 543.76 302.1 547.39 301.49 547.39 301.49 550.98 300.86 550.98 300.86 552.77 300.54 552.77 300.54 554.54 300.21 554.54 300.21 556.3 299.88 556.3 299.88 558.05 299.55 558.05 299.55 559.8 299.21 559.8 299.21 561.53 298.87 561.53 298.87 563.25 298.52 563.25 298.52 564.96 298.17 564.96 298.17 566.66 297.82 566.66 297.82 568.34 297.46 568.34 297.46 570.02 297.1 570.02 297.1 571.68 296.74 571.68 296.74 573.33 296.37 573.33 296.37 574.97 296 574.97 296 576.6 295.62 576.6 295.62 578.21 295.25 578.21 295.25 579.82 294.86 579.82 294.86 581.4 294.48 581.4 294.48 582.98 294.09 582.98 294.09 584.54 293.7 584.54 293.7 586.09 293.3 586.09 293.3 587.62 292.9 587.62 292.9 589.15 292.5 589.15 292.5 590.65 292.1 590.65 292.1 592.15 291.69 592.15 291.69 593.63 291.28 593.63 291.28 595.09 290.86 595.09 290.86 596.54 290.45 596.54 290.45 597.97 290.03 597.97 290.03 599.39 289.6 599.39 289.6 600.8 289.18 600.8 289.18 602.19 288.75 602.19 288.75 603.56 288.32 603.56 288.32 604.92 287.88 604.92 287.88 606.27 287.45 606.27 287.45 607.6 287.01 607.6 287.01 608.91 286.57 608.91 286.57 610.2 286.12 610.2 286.12 611.49 285.68 611.49 285.68 612.75 285.23 612.75 285.23 614 284.77 614 284.77 615.23 284.32 615.23 284.32 616.45 283.87 616.45 283.87 617.64 283.41 617.64 283.41 618.83 282.95 618.83 282.95 619.99 282.48 619.99 282.48 621.14 282.02 621.14 282.02 622.28 281.55 622.28 281.55 623.39 281.09 623.39 281.09 624.49 280.62 624.49 280.62 625.57 280.14 625.57 280.14 626.64 279.67 626.64 279.67 627.68 279.2 627.68 279.2 628.71 278.72 628.71 278.72 629.73 278.24 629.73 278.24 630.72 277.76 630.72 277.76 631.7 277.28 631.7 277.28 632.66 276.8 632.66 276.8 633.61 276.31 633.61 276.31 634.53 275.83 634.53 275.83 635.44 275.34 635.44 275.34 636.33 274.86 636.33 274.86 637.21 274.37 637.21 274.37 638.06 273.88 638.06 273.88 638.9 273.39 638.9 273.39 639.73 272.9 639.73 272.9 640.53 272.4 640.53 272.4 641.32 271.91 641.32 271.91 642.09 271.42 642.09 271.42 642.84 270.92 642.84 270.92 643.57 270.43 643.57 270.43 644.29 269.93 644.29 269.93 644.99 269.44 644.99 269.44 645.67 268.94 645.67 268.94 646.34 268.44 646.34 268.44 646.99 267.94 646.99 267.94 647.62 267.45 647.62 267.45 648.23 266.95 648.23 266.95 648.82 266.45 648.82 266.45 649.4 265.95 649.4 265.95 649.96 265.45 649.96 265.45 650.51 264.95 650.51 264.95 651.04 264.46 651.04 264.46 651.55 263.96 651.55 263.96 652.04 263.46 652.04 263.46 652.52 262.96 652.52 262.96 652.98 262.46 652.98 262.46 653.42 261.96 653.42 261.96 653.85 261.47 653.85 261.47 654.26 260.97 654.26 260.97 654.65 260.47 654.65 260.47 655.03 259.98 655.03 259.98 655.39 259.48 655.39 259.48 655.73 258.98 655.73 258.98 656.06 258.49 656.06 258.49 656.37 258 656.37 258 656.67 257.5 656.67 257.5 656.95 257.01 656.95 257.01 657.22 256.52 657.22 256.52 657.46 256.03 657.46 256.03 657.7 255.53 657.7 255.53 657.92 255.04 657.92 255.04 658.12 254.56 658.12 254.56 658.31 254.07 658.31 254.07 658.48 253.58 658.48 253.58 658.63 253.1 658.63 253.1 658.78 252.61 658.78 252.61 658.9 252.13 658.9 252.13 659.01 251.64 659.01 251.64 659.11 251.16 659.11 251.16 659.19 250.68 659.19 250.68 659.26 250.2 659.26 250.2 659.32 249.73 659.32 249.73 659.36 249.25 659.36 249.25 659.38 248.78 659.38 248.78 659.4 248.3 659.4 248.3 659.4 248.18 659.4 248.18 659.4 248.13 659.4 248.13 659.4 248.25 659.4 248.25 659.4 248.78 659.4 248.78 659.4 249.83 659.4 249.83 659.4 251.93 659.4 251.93 659.4 260.32 659.4 260.32 659.4 277.11 659.4 277.11 659.4 310.68 659.4 310.68 659.4 377.82"
fill="#98c379" stroke="black" stroke-width="9.5"/>
<path d="M659.4 533.46 659.39 533.93 659.39 533.93 659.37 534.41 659.37 534.41 659.33 534.88 659.33 534.88 659.29 535.36 659.29 535.36 659.22 535.84 659.22 535.84 659.14 536.32 659.14 536.32 659.05 536.8 659.05 536.8 658.95 537.28 658.95 537.28 658.82 537.77 658.82 537.77 658.69 538.25 658.69 538.25 658.54 538.74 658.54 538.74 658.37 539.22 658.37 539.22 658.19 539.71 658.19 539.71 657.99 540.2 657.99 540.2 657.78 540.69 657.78 540.69 657.55 541.18 657.55 541.18 657.31 541.67 657.31 541.67 657.05 542.16 657.05 542.16 656.78 542.65 656.78 542.65 656.49 543.15 656.49 543.15 656.18 543.64 656.18 543.64 655.86 544.13 655.86 544.13 655.52 544.63 655.52 544.63 655.17 545.13 655.17 545.13 654.8 545.62 654.8 545.62 654.41 546.12 654.41 546.12 654 546.62 654 546.62 653.58 547.11 653.58 547.11 653.15 547.61 653.15 547.61 652.69 548.11 652.69 548.11 652.22 548.61 652.22 548.61 651.74 549.11 651.74 549.11 651.23 549.6 651.23 549.6 650.71 550.1 650.71 550.1 650.17 550.6 650.17 550.6 649.62 551.1 649.62 551.1 649.04 551.6 649.04 551.6 648.45 552.1 648.45 552.1 647.85 552.6 647.85 552.6 647.22 553.09 647.22 553.09 646.58 553.59 646.58 553.59 645.92 554.09 645.92 554.09 645.25 554.59 645.25 554.59 644.56 555.08 644.56 555.08 643.85 555.58 643.85 555.58 643.12 556.07 643.12 556.07 642.37 556.57 642.37 556.57 641.61 557.06 641.61 557.06 640.83 557.56 640.83 557.56 640.03 558.05 640.03 558.05 639.22 558.54 639.22 558.54 638.38 559.03 638.38 559.03 637.53 559.52 637.53 559.52 636.66 560.01 636.66 560.01 635.78 560.5 635.78 560.5 634.88 560.98 634.88 560.98 633.96 561.47 633.96 561.47 633.02 561.95 633.02 561.95 632.06 562.44 632.06 562.44 631.09 562.92 631.09 562.92 630.1 563.4 630.1 563.4 629.1 563.88 629.1 563.88 628.07 564.35 628.07 564.35 627.03 564.83 627.03 564.83 625.97 565.3 625.97 565.3 624.9 565.78 624.9 565.78 623.81 566.25 623.81 566.25 622.7 566.71 622.7 566.71 621.57 567.18 621.57 567.18 620.43 567.65 620.43 567.65 619.27 568.11 619.27 568.11 618.09 568.57 618.09 568.57 616.9 569.03 616.9 569.03 615.69 569.49 615.69 569.49 614.46 569.94 614.46 569.94 613.22 570.39 613.22 570.39 611.96 570.84 611.96 570.84 610.69 571.29 610.69 571.29 609.4 571.74 609.4 571.74 608.09 572.18 608.09 572.18 606.77 572.62 606.77 572.62 605.43 573.06 605.43 573.06 604.08 573.49 604.08 573.49 602.71 573.92 602.71 573.92 601.32 574.35 601.32 574.35 599.92 574.78 599.92 574.78 598.51 575.2 598.51 575.2 597.08 575.63 597.08 575.63 595.64 576.04 595.64 576.04 594.18 576.46 594.18 576.46 592.7 576.87 592.7 576.87 591.22 577.28 591.22 577.28 589.71 577.69 589.71 577.69 588.2 578.09 588.2 578.09 586.67 578.49 586.67 578.49 585.13 578.89 585.13 578.89 583.57 579.28 583.57 579.28 582 579.67 582 579.67 580.41 580.06 580.41 580.06 578.82 580.44 578.82 580.44 577.21 580.82 577.21 580.82 575.59 581.2 575.59 581.2 573.95 581.57 573.95 581.57 572.3 581.94 572.3 581.94 570.65 582.3 570.65 582.3 568.97 582.66 568.97 582.66 567.29 583.02 567.29 583.02 565.6 583.38 565.6 583.38 563.89 583.73 563.89 583.73 562.18 584.07 562.18 584.07 560.45 584.42 560.45 584.42 558.71 584.76 558.71 584.76 556.96 585.09 556.96 585.09 555.2 585.42 555.2 585.42 553.43 585.75 553.43 585.75 551.65 586.07 551.65 586.07 548.07 586.71 548.07 586.71 544.44 587.33 544.44 587.33 540.78 587.93 540.78 587.93 537.09 588.51 537.09 588.51 533.37 589.08 533.37 589.08 529.61 589.63 529.61 589.63 525.83 590.17 525.83 590.17 522.02 590.69 522.02 590.69 518.19 591.19 518.19 591.19 514.33 591.67 514.33 591.67 510.45 592.14 510.45 592.14 506.56 592.59 506.56 592.59 502.65 593.02 502.65 593.02 498.72 593.43 498.72 593.43 494.77 593.83 494.77 593.83 490.82 594.21 490.82 594.21 486.86 594.57 486.86 594.57 482.88 594.91 482.88 594.91 478.9 595.24 478.9 595.24 474.92 595.55 474.92 595.55 470.93 595.84 470.93 595.84 466.94 596.11 466.94 596.11 462.95 596.37 462.95 596.37 458.97 596.61 458.97 596.61 454.98 596.84 454.98 596.84 451 597.04 451 597.04 447.03 597.24 447.03 597.24 443.07 597.41 443.07 597.41 439.11 597.57 439.11 597.57 435.17 597.71 435.17 597.71 431.23 597.84 431.23 597.84 427.31 597.95 427.31 597.95 423.41 598.05 423.41 598.05 419.52 598.13 419.52 598.13 415.65 598.19 415.65 598.19 411.79 598.24 411.79 598.24 407.96 598.28 407.96 598.28 404.15 598.3 404.15 598.3 400.36 598.31 400.36 598.31 396.57 598.3 396.57 598.3 392.76 598.29 392.76 598.29 388.93 598.25 388.93 598.25 385.08 598.2 385.08 598.2 381.21 598.14 381.21 598.14 377.32 598.06 377.32 598.06 373.42 597.97 373.42 597.97 369.51 597.86 369.51 597.86 365.58 597.74 365.58 597.74 361.63 597.6 361.63 597.6 357.68 597.44 357.68 597.44 353.72 597.27 353.72 597.27 349.74 597.08 349.74 597.08 345.77 596.88 345.77 596.88 341.78 596.66 341.78 596.66 337.8 596.42 337.8 596.42 333.81 596.16 333.81 596.16 329.82 595.89 329.82 595.89 325.83 595.6 325.83 595.6 321.85 595.3 321.85 595.3 317.86 594.97 317.86 594.97 313.89 594.63 313.89 594.63 309.92 594.28 309.92 594.28 305.97 593.9 305.97 593.9 302.02 593.51 302.02 593.51 298.09 593.1 298.09 593.1 294.18 592.67 294.18 592.67 290.28 592.22 290.28 592.22 286.4 591.76 286.4 591.76 282.54 591.28 282.54 591.28 278.7 590.78 278.7 590.78 274.88 590.27 274.88 590.27 271.1 589.74 271.1 589.74 267.34 589.19 267.34 589.19 263.61 588.62 263.61 588.62 259.91 588.04 259.91 588.04 256.24 587.44 256.24 587.44 252.61 586.83 252.61 586.83 249.02 586.19 249.02 586.19 247.23 585.87 247.23 585.87 245.46 585.55 245.46 585.55 243.7 585.22 243.7 585.22 241.95 584.88 241.95 584.88 240.2 584.54 240.2 584.54 238.47 584.2 238.47 584.2 236.75 583.86 236.75 583.86 235.04 583.51 235.04 583.51 233.34 583.16 233.34 583.16 231.66 582.8 231.66 582.8 229.98 582.44 229.98 582.44 228.32 582.07 228.32 582.07 226.67 581.71 226.67 581.71 225.03 581.34 225.03 581.34 223.4 580.96 223.4 580.96 221.79 580.58 221.79 580.58 220.18 580.2 220.18 580.2 218.6 579.82 218.6 579.82 217.02 579.43 217.02 579.43 215.46 579.03 215.46 579.03 213.91 578.64 213.91 578.64 212.38 578.24 212.38 578.24 210.85 577.84 210.85 577.84 209.35 577.43 209.35 577.43 207.85 577.03 207.85 577.03 206.37 576.62 206.37 576.62 204.91 576.2 204.91 576.2 203.46 575.78 203.46 575.78 202.03 575.36 202.03 575.36 200.61 574.94 200.61 574.94 199.2 574.51 199.2 574.51 197.81 574.09 197.81 574.09 196.44 573.65 196.44 573.65 195.08 573.22 195.08 573.22 193.73 572.78 193.73 572.78 192.4 572.34 192.4 572.34 191.09 571.9 191.09 571.9 189.8 571.46 189.8 571.46 188.51 571.01 188.51 571.01 187.25 570.56 187.25 570.56 186 570.11 186 570.11 184.77 569.66 184.77 569.66 183.55 569.2 183.55 569.2 182.36 568.74 182.36 568.74 181.17 568.28 181.17 568.28 180.01 567.82 180.01 567.82 178.86 567.36 178.86 567.36 177.72 566.89 177.72 566.89 176.61 566.42 176.61 566.42 175.51 565.95 175.51 565.95 174.43 565.48 174.43 565.48 173.36 565.01 173.36 565.01 172.32 564.53 172.32 564.53 171.29 564.06 171.29 564.06 170.27 563.58 170.27 563.58 169.28 563.1 169.28 563.1 168.3 562.62 168.3 562.62 167.34 562.13 167.34 562.13 166.39 561.65 166.39 561.65 165.47 561.17 165.47 561.17 164.56 560.68 164.56 560.68 163.67 560.19 163.67 560.19 162.79 559.7 162.79 559.7 161.94 559.21 161.94 559.21 161.1 558.72 161.1 558.72 160.27 558.23 160.27 558.23 159.47 557.74 159.47 557.74 158.68 557.25 158.68 557.25 157.91 556.75 157.91 556.75 157.16 556.26 157.16 556.26 156.43 555.76 156.43 555.76 155.71 555.27 155.71 555.27 155.01 554.77 155.01 554.77 154.33 554.28 154.33 554.28 153.66 553.78 153.66 553.78 153.01 553.28 153.01 553.28 152.38 552.78 152.38 552.78 151.77 552.28 151.77 552.28 151.18 551.79 151.18 551.79 150.6 551.29 150.6 551.29 150.04 550.79 150.04 550.79 149.49 550.29 149.49 550.29 148.96 549.79 148.96 549.79 148.45 549.29 148.45 549.29 147.96 548.8 147.96 548.8 147.48 548.3 147.48 548.3 147.02 547.8 147.02 547.8 146.58 547.3 146.58 547.3 146.15 546.8 146.15 546.8 145.74 546.31 145.74 546.31 145.35 545.81 145.35 545.81 144.97 545.31 144.97 545.31 144.61 544.82 144.61 544.82 144.27 544.32 144.27 544.32 143.94 543.83 143.94 543.83 143.63 543.33 143.63 543.33 143.33 542.84 143.33 542.84 143.05 542.35 143.05 542.35 142.78 541.85 142.78 541.85 142.54 541.36 142.54 541.36 142.3 540.87 142.3 540.87 142.08 540.38 142.08 540.38 141.88 539.89 141.88 539.89 141.69 539.4 141.69 539.4 141.52 538.92 141.52 538.92 141.37 538.43 141.37 538.43 141.22 537.95 141.22 537.95 141.1 537.46 141.1 537.46 140.99 536.98 140.99 536.98 140.89 536.5 140.89 536.5 140.81 536.02 140.81 536.02 140.74 535.54 140.74 535.54 140.68 535.06 140.68 535.06 140.64 534.59 140.64 534.59 140.62 534.11 140.62 534.11 140.6 533.64 140.6 533.64 140.6 533.52 140.6 533.52 140.6 533.46 140.6 533.46 140.6 533.33 140.6 533.33 140.6 532.81 140.6 532.81 140.6 531.76 140.6 531.76 140.6 529.66 140.6 529.66 140.6 521.27 140.6 521.27 140.6 504.48 140.6 504.48 140.6 470.91 140.6 470.91 140.6 403.76 140.6 403.76 140.61 404.24 140.61 404.24 140.63 404.71 140.63 404.71 140.67 405.19 140.67 405.19 140.71 405.66 140.71 405.66 140.78 406.14 140.78 406.14 140.86 406.62 140.86 406.62 140.95 407.1 140.95 407.1 141.05 407.58 141.05 407.58 141.18 408.07 141.18 408.07 141.31 408.55 141.31 408.55 141.46 409.04 141.46 409.04 141.63 409.52 141.63 409.52 141.81 410.01 141.81 410.01 142.01 410.5 142.01 410.5 142.22 410.99 142.22 410.99 142.45 411.48 142.45 411.48 142.69 411.97 142.69 411.97 142.95 412.46 142.95 412.46 143.22 412.95 143.22 412.95 143.51 413.45 143.51 413.45 143.82 413.94 143.82 413.94 144.14 414.44 144.14 414.44 144.48 414.93 144.48 414.93 144.83 415.43 144.83 415.43 145.2 415.92 145.2 415.92 145.59 416.42 145.59 416.42 146 416.92 146 416.92 146.42 417.42 146.42 417.42 146.85 417.91 146.85 417.91 147.31 418.41 147.31 418.41 147.78 418.91 147.78 418.91 148.26 419.41 148.26 419.41 148.77 419.91 148.77 419.91 149.29 420.4 149.29 420.4 149.83 420.9 149.83 420.9 150.38 421.4 150.38 421.4 150.96 421.9 150.96 421.9 151.55 422.4 151.55 422.4 152.15 422.9 152.15 422.9 152.78 423.4 152.78 423.4 153.42 423.89 153.42 423.89 154.08 424.39 154.08 424.39 154.75 424.89 154.75 424.89 155.44 425.38 155.44 425.38 156.15 425.88 156.15 425.88 156.88 426.37 156.88 426.37 157.63 426.87 157.63 426.87 158.39 427.36 158.39 427.36 159.17 427.86 159.17 427.86 159.97 428.35 159.97 428.35 160.78 428.84 160.78 428.84 161.62 429.33 161.62 429.33 162.47 429.82 162.47 429.82 163.34 430.31 163.34 430.31 164.22 430.8 164.22 430.8 165.12 431.29 165.12 431.29 166.04 431.77 166.04 431.77 166.98 432.25 166.98 432.25 167.94 432.74 167.94 432.74 168.91 433.22 168.91 433.22 169.9 433.7 169.9 433.7 170.9 434.18 170.9 434.18 171.93 434.66 171.93 434.66 172.97 435.13 172.97 435.13 174.03 435.6 174.03 435.6 175.1 436.08 175.1 436.08 176.19 436.55 176.19 436.55 177.3 437.02 177.3 437.02 178.43 437.48 178.43 437.48 179.57 437.95 179.57 437.95 180.73 438.41 180.73 438.41 181.91 438.87 181.91 438.87 183.1 439.33 183.1 439.33 184.31 439.79 184.31 439.79 185.54 440.24 185.54 440.24 186.78 440.69 186.78 440.69 188.04 441.14 188.04 441.14 189.31 441.59 189.31 441.59 190.6 442.04 190.6 442.04 191.91 442.48 191.91 442.48 193.23 442.92 193.23 442.92 194.57 443.36 194.57 443.36 195.92 443.79 195.92 443.79 197.29 444.23 197.29 444.23 198.68 444.66 198.68 444.66 200.08 445.08 200.08 445.08 201.49 445.51 201.49 445.51 202.92 445.93 202.92 445.93 204.36 446.35 204.36 446.35 205.82 446.76 205.82 446.76 207.3 447.17 207.3 447.17 208.78 447.58 208.78 447.58 210.29 447.99 210.29 447.99 211.8 448.39 211.8 448.39 213.33 448.79 213.33 448.79 214.87 449.19 214.87 449.19 216.43 449.58 216.43 449.58 218 449.97 218 449.97 219.59 450.36 219.59 450.36 221.18 450.74 221.18 450.74 222.79 451.12 222.79 451.12 224.41 451.5 224.41 451.5 226.05 451.87 226.05 451.87 227.7 452.24 227.7 452.24 229.35 452.6 229.35 452.6 231.03 452.97 231.03 452.97 232.71 453.32 232.71 453.32 234.4 453.68 234.4 453.68 236.11 454.03 236.11 454.03 237.82 454.38 237.82 454.38 239.55 454.72 239.55 454.72 241.29 455.06 241.29 455.06 243.04 455.39 243.04 455.39 244.8 455.72 244.8 455.72 246.57 456.05 246.57 456.05 248.35 456.37 248.35 456.37 251.93 457.01 251.93 457.01 255.56 457.63 255.56 457.63 259.22 458.23 259.22 458.23 262.91 458.82 262.91 458.82 266.63 459.38 266.63 459.38 270.39 459.94 270.39 459.94 274.17 460.47 274.17 460.47 277.98 460.99 277.98 460.99 281.81 461.49 281.81 461.49 285.67 461.97 285.67 461.97 289.55 462.44 289.55 462.44 293.44 462.89 293.44 462.89 297.35 463.32 297.35 463.32 301.28 463.73 301.28 463.73 305.23 464.13 305.23 464.13 309.18 464.51 309.18 464.51 313.14 464.87 313.14 464.87 317.12 465.21 317.12 465.21 321.1 465.54 321.1 465.54 325.08 465.85 325.08 465.85 329.07 466.14 329.07 466.14 333.06 466.42 333.06 466.42 337.05 466.67 337.05 466.67 341.03 466.91 341.03 466.91 345.02 467.14 345.02 467.14 349 467.35 349 467.35 352.97 467.54 352.97 467.54 356.93 467.71 356.93 467.71 360.89 467.87 360.89 467.87 364.83 468.01 364.83 468.01 368.77 468.14 368.77 468.14 372.69 468.25 372.69 468.25 376.59 468.35 376.59 468.35 380.48 468.43 380.48 468.43 384.35 468.49 384.35 468.49 388.21 468.55 388.21 468.55 392.04 468.58 392.04 468.58 395.85 468.6 395.85 468.6 399.64 468.61 399.64 468.61 403.43 468.61 403.43 468.61 407.24 468.59 407.24 468.59 411.07 468.55 411.07 468.55 414.92 468.5 414.92 468.5 418.79 468.44 418.79 468.44 422.68 468.36 422.68 468.36 426.58 468.27 426.58 468.27 430.49 468.16 430.49 468.16 434.42 468.04 434.42 468.04 438.37 467.9 438.37 467.9 442.32 467.74 442.32 467.74 446.28 467.57 446.28 467.57 450.26 467.38 450.26 467.38 454.23 467.18 454.23 467.18 458.22 466.96 458.22 466.96 462.2 466.72 462.2 466.72 466.19 466.47 466.19 466.47 470.18 466.19 470.18 466.19 474.17 465.9 474.17 465.9 478.15 465.6 478.15 465.6 482.14 465.28 482.14 465.28 486.11 464.93 486.11 464.93 490.08 464.58 490.08 464.58 494.03 464.2 494.03 464.2 497.98 463.81 497.98 463.81 501.91 463.4 501.91 463.4 505.82 462.97 505.82 462.97 509.72 462.52 509.72 462.52 513.6 462.06 513.6 462.06 517.46 461.58 517.46 461.58 521.3 461.08 521.3 461.08 525.12 460.57 525.12 460.57 528.9 460.04 528.9 460.04 532.66 459.49 532.66 459.49 536.39 458.92 536.39 458.92 540.09 458.34 540.09 458.34 543.76 457.74 543.76 457.74 547.39 457.13 547.39 457.13 550.98 456.5 550.98 456.5 552.77 456.17 552.77 456.17 554.54 455.85 554.54 455.85 556.3 455.52 556.3 455.52 558.05 455.18 558.05 455.18 559.8 454.85 559.8 454.85 561.53 454.5 561.53 454.5 563.25 454.16 563.25 454.16 564.96 453.81 564.96 453.81 566.66 453.46 566.66 453.46 568.34 453.1 568.34 453.1 570.02 452.74 570.02 452.74 571.68 452.38 571.68 452.38 573.33 452.01 573.33 452.01 574.97 451.64 574.97 451.64 576.6 451.26 576.6 451.26 578.21 450.88 578.21 450.88 579.82 450.5 579.82 450.5 581.4 450.12 581.4 450.12 582.98 449.73 582.98 449.73 584.54 449.34 584.54 449.34 586.09 448.94 586.09 448.94 587.62 448.54 587.62 448.54 589.15 448.14 589.15 448.14 590.65 447.74 590.65 447.74 592.15 447.33 592.15 447.33 593.63 446.92 593.63 446.92 595.09 446.5 595.09 446.5 596.54 446.09 596.54 446.09 597.97 445.67 597.97 445.67 599.39 445.24 599.39 445.24 600.8 444.82 600.8 444.82 602.19 444.39 602.19 444.39 603.56 443.96 603.56 443.96 604.92 443.52 604.92 443.52 606.27 443.09 606.27 443.09 607.6 442.65 607.6 442.65 608.91 442.2 608.91 442.2 610.2 441.76 610.2 441.76 611.49 441.31 611.49 441.31 612.75 440.86 612.75 440.86 614 440.41 614 440.41 615.23 439.96 615.23 439.96 616.45 439.5 616.45 439.5 617.64 439.05 617.64 439.05 618.83 438.58 618.83 438.58 619.99 438.12 619.99 438.12 621.14 437.66 621.14 437.66 622.28 437.19 622.28 437.19 623.39 436.72 623.39 436.72 624.49 436.25 624.49 436.25 625.57 435.78 625.57 435.78 626.64 435.31 626.64 435.31 627.68 434.83 627.68 434.83 628.71 434.36 628.71 434.36 629.73 433.88 629.73 433.88 630.72 433.4 630.72 433.4 631.7 432.92 631.7 432.92 632.66 432.44 632.66 432.44 633.61 431.95 633.61 431.95 634.53 431.47 634.53 431.47 635.44 430.98 635.44 430.98 636.33 430.49 636.33 430.49 637.21 430.01 637.21 430.01 638.06 429.52 638.06 429.52 638.9 429.03 638.9 429.03 639.73 428.53 639.73 428.53 640.53 428.04 640.53 428.04 641.32 427.55 641.32 427.55 642.09 427.06 642.09 427.06 642.84 426.56 642.84 426.56 643.57 426.07 643.57 426.07 644.29 425.57 644.29 425.57 644.99 425.07 644.99 425.07 645.67 424.58 645.67 424.58 646.34 424.08 646.34 424.08 646.99 423.58 646.99 423.58 647.62 423.08 647.62 423.08 648.23 422.59 648.23 422.59 648.82 422.09 648.82 422.09 649.4 421.59 649.4 421.59 649.96 421.09 649.96 421.09 650.51 420.59 650.51 420.59 651.04 420.09 651.04 420.09 651.55 419.6 651.55 419.6 652.04 419.1 652.04 419.1 652.52 418.6 652.52 418.6 652.98 418.1 652.98 418.1 653.42 417.6 653.42 417.6 653.85 417.1 653.85 417.1 654.26 416.61 654.26 416.61 654.65 416.11 654.65 416.11 655.03 415.61 655.03 415.61 655.39 415.12 655.39 415.12 655.73 414.62 655.73 414.62 656.06 414.13 656.06 414.13 656.37 413.63 656.37 413.63 656.67 413.14 656.67 413.14 656.95 412.65 656.95 412.65 657.22 412.15 657.22 412.15 657.46 411.66 657.46 411.66 657.7 411.17 657.7 411.17 657.92 410.68 657.92 410.68 658.12 410.19 658.12 410.19 658.31 409.71 658.31 409.71 658.48 409.22 658.48 409.22 658.63 408.73 658.63 408.73 658.78 408.25 658.78 408.25 658.9 407.77 658.9 407.77 659.01 407.28 659.01 407.28 659.11 406.8 659.11 406.8 659.19 406.32 659.19 406.32 659.26 405.84 659.26 405.84 659.32 405.37 659.32 405.37 659.36 404.89 659.36 404.89 659.38 404.41 659.38 404.41 659.4 403.94 659.4 403.94 659.4 403.82 659.4 403.82 659.4 403.76 659.4 403.76 659.4 403.89 659.4 403.89 659.4 404.42 659.4 404.42 659.4 405.47 659.4 405.47 659.4 407.56 659.4 407.56 659.4 415.96 659.4 415.96 659.4 432.74 659.4 432.74 659.4 466.32 659.4 466.32 659.4 533.46"
fill="#528bff" stroke="black" stroke-width="9.5"/>
</svg>